<svg width="20" height="20" viewBox="0 0 20 20" fill="none" xmlns="http://www.w3.org/2000/svg">
<path d="M15.2885 8.17844C15.2885 12.7276 10.2419 17.4653 8.5473 18.9285C8.38943 19.0472 8.19726 19.1114 7.99973 19.1114C7.80221 19.1114 7.61003 19.0472 7.45216 18.9285C5.75752 17.4653 0.710938 12.7276 0.710938 8.17844C0.710938 6.24533 1.47886 4.3914 2.84578 3.02449C4.21269 1.65757 6.06662 0.889648 7.99973 0.889648C9.93284 0.889648 11.7868 1.65757 13.1537 3.02449C14.5206 4.3914 15.2885 6.24533 15.2885 8.17844Z" stroke="#6E6E6E" stroke-linecap="round" stroke-linejoin="round"/>
<path d="M7.99892 10.9119C9.50848 10.9119 10.7322 9.68817 10.7322 8.17861C10.7322 6.66905 9.50848 5.44531 7.99892 5.44531C6.48936 5.44531 5.26562 6.66905 5.26562 8.17861C5.26562 9.68817 6.48936 10.9119 7.99892 10.9119Z" stroke="#6E6E6E" stroke-linecap="round" stroke-linejoin="round"/>
</svg>
