<svg width="18" height="18" viewBox="0 0 18 18" fill="none" xmlns="http://www.w3.org/2000/svg">
<mask id="mask0_928_4727" style="mask-type:alpha" maskUnits="userSpaceOnUse" x="0" y="0" width="18" height="18">
<rect width="18" height="18" fill="#D9D9D9"/>
</mask>
<g mask="url(#mask0_928_4727)">
<path d="M3.00098 14.9998C2.58848 14.9998 2.23535 14.8529 1.9416 14.5591C1.64785 14.2654 1.50098 13.9123 1.50098 13.4998V4.49976C1.50098 4.08726 1.64785 3.73413 1.9416 3.44038C2.23535 3.14663 2.58848 2.99976 3.00098 2.99976H15.001C15.4135 2.99976 15.7666 3.14663 16.0604 3.44038C16.3541 3.73413 16.501 4.08726 16.501 4.49976V13.4998C16.501 13.9123 16.3541 14.2654 16.0604 14.5591C15.7666 14.8529 15.4135 14.9998 15.001 14.9998H3.00098ZM9.00098 9.74976L15.001 5.99976V4.49976L9.00098 8.24976L3.00098 4.49976V5.99976L9.00098 9.74976Z" fill="#C8C8C8"/>
</g>
</svg>
