<svg width="36" height="36" viewBox="0 0 36 36" fill="none" xmlns="http://www.w3.org/2000/svg">
<path d="M15.632 25.632C16.4 25.864 17.176 26 18 26C20.1217 26 22.1566 25.1571 23.6569 23.6569C25.1571 22.1566 26 20.1217 26 18C26 16.9494 25.7931 15.9091 25.391 14.9385C24.989 13.9679 24.3997 13.086 23.6569 12.3431C22.914 11.6003 22.0321 11.011 21.0615 10.609C20.0909 10.2069 19.0506 10 18 10C16.9494 10 15.9091 10.2069 14.9385 10.609C13.9679 11.011 13.086 11.6003 12.3431 12.3431C10.8429 13.8434 10 15.8783 10 18C10 21.4 12.136 24.32 15.152 25.472C15.08 24.848 15.008 23.816 15.152 23.104L16.072 19.152C16.072 19.152 15.84 18.688 15.84 17.952C15.84 16.848 16.528 16.024 17.312 16.024C18 16.024 18.32 16.528 18.32 17.176C18.32 17.864 17.864 18.848 17.632 19.792C17.496 20.576 18.048 21.264 18.848 21.264C20.272 21.264 21.376 19.744 21.376 17.6C21.376 15.68 20 14.368 18.024 14.368C15.768 14.368 14.44 16.048 14.44 17.816C14.44 18.504 14.664 19.2 15.032 19.656C15.104 19.704 15.104 19.768 15.08 19.888L14.848 20.76C14.848 20.896 14.76 20.944 14.624 20.848C13.6 20.4 13.008 18.944 13.008 17.768C13.008 15.24 14.8 12.944 18.256 12.944C21.008 12.944 23.152 14.92 23.152 17.544C23.152 20.296 21.448 22.504 19.008 22.504C18.232 22.504 17.472 22.088 17.2 21.6L16.664 23.496C16.48 24.184 15.976 25.104 15.632 25.656V25.632Z" fill="white"/>
</svg>
