<svg width="36" height="36" viewBox="0 0 36 36" fill="none" xmlns="http://www.w3.org/2000/svg">
<path d="M18 11.4415C20.136 11.4415 20.389 11.4495 21.2328 11.4879C21.7401 11.4941 22.2426 11.5873 22.7185 11.7633C23.0636 11.8964 23.3769 12.1003 23.6385 12.3618C23.9 12.6233 24.1039 12.9367 24.237 13.2817C24.413 13.7576 24.5062 14.2601 24.5124 14.7674C24.5505 15.6112 24.5589 15.8641 24.5589 18C24.5589 20.1359 24.5509 20.3888 24.5124 21.2326C24.5062 21.7399 24.413 22.2424 24.237 22.7183C24.1039 23.0633 23.9 23.3767 23.6385 23.6382C23.3769 23.8997 23.0636 24.1036 22.7185 24.2367C22.2426 24.4127 21.7401 24.5059 21.2328 24.5121C20.3893 24.5502 20.1364 24.5585 18 24.5585C15.8636 24.5585 15.6107 24.5505 14.7672 24.5121C14.2599 24.5059 13.7574 24.4127 13.2815 24.2367C12.9364 24.1036 12.6231 23.8997 12.3615 23.6382C12.1 23.3767 11.8961 23.0633 11.763 22.7183C11.587 22.2424 11.4938 21.7399 11.4876 21.2326C11.4495 20.3888 11.4411 20.1359 11.4411 18C11.4411 15.8641 11.4491 15.6112 11.4876 14.7674C11.4938 14.2601 11.587 13.7576 11.763 13.2817C11.8961 12.9367 12.1 12.6233 12.3615 12.3618C12.6231 12.1003 12.9364 11.8964 13.2815 11.7633C13.7574 11.5873 14.2599 11.4941 14.7672 11.4879C15.611 11.4498 15.864 11.4415 18 11.4415ZM18 10C15.8286 10 15.555 10.0091 14.7017 10.048C14.0377 10.0612 13.3808 10.1869 12.7589 10.4198C12.2253 10.6208 11.7421 10.9358 11.3429 11.3428C10.9355 11.7422 10.6202 12.2256 10.419 12.7595C10.1862 13.3814 10.0604 14.0383 10.0472 14.7023C10.0091 15.5548 10 15.8283 10 17.9996C10 20.1709 10.0091 20.4445 10.048 21.2977C10.0612 21.9617 10.1869 22.6186 10.4198 23.2405C10.6207 23.7743 10.9357 24.2578 11.3429 24.6572C11.7423 25.0643 12.2258 25.3793 12.7596 25.5802C13.3816 25.8131 14.0385 25.9388 14.7025 25.952C15.5558 25.9901 15.8282 26 18.0008 26C20.1733 26 20.4457 25.9909 21.299 25.952C21.963 25.9388 22.62 25.8131 23.2419 25.5802C23.7732 25.3743 24.2556 25.0598 24.6584 24.6568C25.0611 24.2537 25.3754 23.7711 25.581 23.2398C25.8138 22.6178 25.9396 21.9609 25.9528 21.297C25.9909 20.4445 26 20.1709 26 17.9996C26 15.8283 25.9909 15.5548 25.952 14.7015C25.9388 14.0375 25.8131 13.3806 25.5802 12.7587C25.3793 12.225 25.0643 11.7415 24.6571 11.342C24.2577 10.9349 23.7742 10.6199 23.2404 10.419C22.6184 10.1862 21.9615 10.0604 21.2975 10.0472C20.445 10.0091 20.1714 10 18 10Z" fill="white"/>
<path d="M17.9999 13.7646C17.1623 13.7646 16.3434 14.013 15.6469 14.4784C14.9505 14.9438 14.4076 15.6053 14.087 16.3792C13.7665 17.1531 13.6826 18.0046 13.846 18.8262C14.0094 19.6478 14.4128 20.4024 15.0051 20.9947C15.5975 21.5871 16.3521 21.9904 17.1737 22.1539C17.9952 22.3173 18.8468 22.2334 19.6207 21.9128C20.3946 21.5923 21.0561 21.0494 21.5215 20.3529C21.9868 19.6565 22.2352 18.8376 22.2352 17.9999C22.2352 16.8767 21.789 15.7994 20.9947 15.0051C20.2005 14.2109 19.1232 13.7646 17.9999 13.7646ZM17.9999 20.7491C17.4562 20.7491 16.9247 20.5879 16.4726 20.2858C16.0205 19.9837 15.6681 19.5543 15.46 19.052C15.252 18.5497 15.1975 17.9969 15.3036 17.4636C15.4097 16.9303 15.6715 16.4405 16.056 16.056C16.4405 15.6715 16.9303 15.4097 17.4636 15.3036C17.9969 15.1975 18.5497 15.252 19.052 15.46C19.5544 15.6681 19.9837 16.0205 20.2858 16.4726C20.5879 16.9247 20.7491 17.4562 20.7491 17.9999C20.7491 18.7291 20.4595 19.4283 19.9439 19.9439C19.4283 20.4595 18.7291 20.7491 17.9999 20.7491Z" fill="white"/>
<path d="M22.2351 14.7058C22.7549 14.7058 23.1763 14.2845 23.1763 13.7647C23.1763 13.2449 22.7549 12.8235 22.2351 12.8235C21.7153 12.8235 21.2939 13.2449 21.2939 13.7647C21.2939 14.2845 21.7153 14.7058 22.2351 14.7058Z" fill="white"/>
</svg>
