<svg width="36" height="36" viewBox="0 0 36 36" fill="none" xmlns="http://www.w3.org/2000/svg">
<path d="M25.7101 13.8776C25.5138 13.1385 24.9355 12.5565 24.2012 12.3589C22.8702 12 17.5333 12 17.5333 12C17.5333 12 12.1965 12 10.8655 12.3589C10.1312 12.5565 9.55291 13.1385 9.35662 13.8776C9 15.2172 9 18.0121 9 18.0121C9 18.0121 9 20.8071 9.35662 22.1467C9.55291 22.8857 10.1312 23.4435 10.8655 23.6411C12.1965 24 17.5333 24 17.5333 24C17.5333 24 22.8702 24 24.2012 23.6411C24.9355 23.4435 25.5138 22.8857 25.7101 22.1467C26.0667 20.8071 26.0667 18.0121 26.0667 18.0121C26.0667 18.0121 26.0667 15.2172 25.7101 13.8776ZM15.7879 20.5497L15.7879 15.4745L20.2485 18.0122L15.7879 20.5497Z" fill="white"/>
</svg>
