<svg width="36" height="36" viewBox="0 0 36 36" fill="none" xmlns="http://www.w3.org/2000/svg">
<path d="M23.6 12.328C22.8664 11.5873 21.9928 11 21.03 10.6003C20.0672 10.2006 19.0344 9.99659 17.992 10C13.624 10 10.064 13.56 10.064 17.928C10.064 19.328 10.432 20.688 11.12 21.888L10 26L14.2 24.896C15.36 25.528 16.664 25.864 17.992 25.864C22.36 25.864 25.92 22.304 25.92 17.936C25.92 15.816 25.096 13.824 23.6 12.328ZM17.992 24.52C16.808 24.52 15.648 24.2 14.632 23.6L14.392 23.456L11.896 24.112L12.56 21.68L12.4 21.432C11.742 20.3817 11.3927 19.1674 11.392 17.928C11.392 14.296 14.352 11.336 17.984 11.336C19.744 11.336 21.4 12.024 22.64 13.272C23.2541 13.8831 23.7407 14.6101 24.0717 15.4107C24.4026 16.2113 24.5713 17.0697 24.568 17.936C24.584 21.568 21.624 24.52 17.992 24.52ZM21.608 19.592C21.408 19.496 20.432 19.016 20.256 18.944C20.072 18.88 19.944 18.848 19.808 19.04C19.672 19.24 19.296 19.688 19.184 19.816C19.072 19.952 18.952 19.968 18.752 19.864C18.552 19.768 17.912 19.552 17.16 18.88C16.568 18.352 16.176 17.704 16.056 17.504C15.944 17.304 16.04 17.2 16.144 17.096C16.232 17.008 16.344 16.864 16.44 16.752C16.536 16.64 16.576 16.552 16.64 16.424C16.704 16.288 16.672 16.176 16.624 16.08C16.576 15.984 16.176 15.008 16.016 14.608C15.856 14.224 15.688 14.272 15.568 14.264H15.184C15.048 14.264 14.84 14.312 14.656 14.512C14.48 14.712 13.968 15.192 13.968 16.168C13.968 17.144 14.68 18.088 14.776 18.216C14.872 18.352 16.176 20.352 18.16 21.208C18.632 21.416 19 21.536 19.288 21.624C19.76 21.776 20.192 21.752 20.536 21.704C20.92 21.648 21.712 21.224 21.872 20.76C22.04 20.296 22.04 19.904 21.984 19.816C21.928 19.728 21.808 19.688 21.608 19.592Z" fill="white"/>
</svg>
