<svg width="18" height="18" viewBox="0 0 18 18" fill="none" xmlns="http://www.w3.org/2000/svg">
<path d="M13.5277 3.97148C12.9061 3.34386 12.1658 2.84629 11.3498 2.50782C10.5339 2.16934 9.65876 1.99673 8.77543 2.00005C5.07411 2.00005 2.05763 5.01568 2.05424 8.71784C2.05424 9.90358 2.36445 11.0571 2.95012 12.0784L2 15.5611L5.56316 14.6271C6.54844 15.1646 7.65304 15.4459 8.77543 15.445H8.77882C12.481 15.445 15.4966 12.4293 15.5 8.72377C15.5008 7.84066 15.3268 6.96612 14.9882 6.15052C14.6495 5.33491 14.1537 4.59435 13.5277 3.97148ZM8.77543 14.3075C7.7746 14.3067 6.79232 14.0375 5.931 13.5278L5.72759 13.4057L3.61376 13.96L4.17824 11.8979L4.04602 11.6852C3.48646 10.7955 3.19053 9.76545 3.19252 8.71445C3.19252 5.64118 5.69877 3.13409 8.77882 3.13409C9.51259 3.13277 10.2394 3.27671 10.9172 3.55761C11.5951 3.8385 12.2107 4.2508 12.7285 4.77073C13.2479 5.28872 13.6598 5.90439 13.9402 6.58225C14.2207 7.26012 14.3642 7.98679 14.3626 8.72038C14.3592 11.8047 11.8529 14.3075 8.77543 14.3075ZM11.8394 10.1256C11.6724 10.0417 10.8477 9.63575 10.6926 9.57812C10.5384 9.52302 10.4256 9.49421 10.3154 9.66202C10.2027 9.82899 9.88065 10.2095 9.78403 10.3189C9.6874 10.4316 9.58739 10.4443 9.41957 10.3613C9.2526 10.2765 8.71101 10.1002 8.07025 9.52641C7.57019 9.08144 7.2354 8.53053 7.13539 8.36356C7.03877 8.19574 7.12607 8.1059 7.20997 8.02199C7.28371 7.9474 7.37695 7.82535 7.46085 7.72873C7.54561 7.63211 7.57358 7.56091 7.62867 7.44903C7.68376 7.33546 7.65749 7.23884 7.61596 7.15493C7.57358 7.07102 7.23879 6.24295 7.09725 5.90901C6.96164 5.57931 6.82349 5.62508 6.72008 5.62084C6.62346 5.61491 6.51074 5.61491 6.39801 5.61491C6.31289 5.61707 6.22914 5.63678 6.15199 5.67281C6.07484 5.70883 6.00596 5.76039 5.94965 5.82425C5.79539 5.99207 5.36398 6.39806 5.36398 7.22613C5.36398 8.0542 5.96575 8.85006 6.05051 8.96278C6.13357 9.07551 7.23201 10.7698 8.91782 11.4987C9.31617 11.6724 9.62977 11.775 9.87472 11.853C10.2773 11.9818 10.6409 11.9623 10.9308 11.9208C11.2529 11.8716 11.9233 11.514 12.0648 11.1215C12.2038 10.7283 12.2038 10.3926 12.1614 10.3223C12.1199 10.2511 12.0072 10.2095 11.8394 10.1256Z" fill="#C8C8C8"/>
</svg>
