<svg width="62" height="62" viewBox="0 0 62 62" fill="none" xmlns="http://www.w3.org/2000/svg">
<rect width="62" height="62" fill="#1A1A1A"/>
<path d="M17.8203 43.9771C18.731 38.5129 21.4631 35.3255 26.0165 34.4148C30.5699 33.5041 33.302 32.1381 34.2127 30.3167M41.0428 18.0225C39.2215 21.6652 35.5787 23.4866 30.1146 23.4866C27.5785 23.4866 25.1463 24.494 23.3531 26.2873C21.5598 28.0806 20.5524 30.5127 20.5524 33.0488C20.5524 35.5849 21.5598 38.017 23.3531 39.8103C25.1463 41.6036 27.5785 42.611 30.1146 42.611C32.7384 42.6946 35.3285 41.9449 37.5751 40.4516C39.8216 38.9583 41.6295 36.7847 42.7824 34.1907C43.9352 31.5967 44.3843 28.6923 44.0758 25.825C43.7673 22.9576 42.7143 20.2487 41.0428 18.0225Z" stroke="white" stroke-linecap="round" stroke-linejoin="round"/>
</svg>
