<svg width="62" height="62" viewBox="0 0 62 62" fill="none" xmlns="http://www.w3.org/2000/svg">
<rect width="62" height="62" fill="#1A1A1A"/>
<path d="M43.4755 43.978H18.5234C18.2473 43.978 18.0234 43.7542 18.0234 43.478V18.5234C18.0234 18.2473 18.2473 18.0234 18.5234 18.0234H25.8543C26.1304 18.0234 26.3543 18.2473 26.3543 18.5234V30.5609C26.3543 30.6436 26.449 30.6906 26.5148 30.6405L34.481 24.5863C34.8102 24.3361 35.2835 24.5709 35.2835 24.9844V30.5576C35.2835 30.6409 35.3794 30.6876 35.4451 30.6364L43.1678 24.6069C43.4961 24.3506 43.9755 24.5846 43.9755 25.0011V43.478C43.9755 43.7542 43.7516 43.978 43.4755 43.978Z" stroke="white" stroke-linecap="round"/>
</svg>
