<svg width="62" height="62" viewBox="0 0 62 62" fill="none" xmlns="http://www.w3.org/2000/svg">
<rect width="62" height="62" fill="#1A1A1A"/>
<path d="M24.5121 30.9998L30.0738 35.6345L37.4894 26.365M31.0007 43.9771C29.2965 43.9771 27.609 43.6414 26.0345 42.9892C24.4601 42.337 23.0295 41.3811 21.8244 40.1761C20.6193 38.971 19.6634 37.5404 19.0113 35.966C18.3591 34.3915 18.0234 32.704 18.0234 30.9998C18.0234 29.2956 18.3591 27.608 19.0113 26.0336C19.6634 24.4591 20.6193 23.0285 21.8244 21.8234C23.0295 20.6184 24.4601 19.6625 26.0345 19.0103C27.609 18.3581 29.2965 18.0225 31.0007 18.0225C34.4425 18.0225 37.7433 19.3897 40.1771 21.8234C42.6108 24.2571 43.978 27.558 43.978 30.9998C43.978 34.4415 42.6108 37.7424 40.1771 40.1761C37.7433 42.6098 34.4425 43.9771 31.0007 43.9771Z" stroke="white" stroke-linecap="round"/>
</svg>
