<svg width="50" height="50" viewBox="0 0 50 50" fill="none" xmlns="http://www.w3.org/2000/svg">
<rect width="50" height="50" fill="#FAFAFA"/>
<path d="M15.9346 19.9624L24.5311 16.0542C24.7926 15.9353 25.0926 15.9346 25.3546 16.0523L34.0586 19.9615C34.4502 20.1373 34.4527 20.6924 34.0627 20.8718L25.3629 24.8735C25.0962 24.9962 24.789 24.9955 24.5229 24.8716L15.9305 20.8708C15.5433 20.6906 15.5458 20.1392 15.9346 19.9624Z" stroke="black"/>
<path d="M14.9453 25.0117L24.5229 29.4711C24.789 29.5951 25.0962 29.5958 25.3629 29.4731L35.0621 25.0117" stroke="black" stroke-linecap="round"/>
<path d="M14.9453 29.4785L24.5229 33.9379C24.789 34.0618 25.0962 34.0626 25.3629 33.9399L35.0621 29.4785" stroke="black" stroke-linecap="round"/>
</svg>
