<svg width="50" height="50" viewBox="0 0 50 50" fill="none" xmlns="http://www.w3.org/2000/svg">
<rect width="50" height="50" fill="#FAFAFA"/>
<path d="M31.5633 19.3149L31.021 28.0825C30.8828 30.3223 30.8138 31.4426 30.2514 32.2481C29.9738 32.6462 29.6164 32.9821 29.2019 33.2346C28.3649 33.7454 27.2429 33.7454 24.9987 33.7454C22.7511 33.7454 21.6272 33.7454 20.7885 33.2337C20.3739 32.9807 20.0165 32.6442 19.739 32.2455C19.1776 31.4391 19.1093 30.317 18.9747 28.0738L18.4447 19.3149M17.1328 19.3149H32.8751M28.5512 19.3149L27.9539 18.0835C27.5577 17.2649 27.3592 16.8565 27.0172 16.6011C26.9413 16.5445 26.8608 16.4942 26.7767 16.4507C26.398 16.2539 25.9433 16.2539 25.0346 16.2539C24.1023 16.2539 23.6361 16.2539 23.2504 16.4586C23.1652 16.5042 23.0839 16.5569 23.0073 16.616C22.6619 16.881 22.4686 17.3051 22.082 18.1526L21.552 19.3149M22.8175 28.9352V23.6878M27.1904 28.9352V23.6878" stroke="black" stroke-linecap="round"/>
</svg>
