<svg width="50" height="50" viewBox="0 0 50 50" fill="none" xmlns="http://www.w3.org/2000/svg">
<rect width="50" height="50" fill="#FAFAFA"/>
<path d="M32.5777 23.4945L22.5024 33.8545C22.2224 34.1415 21.758 33.809 21.94 33.452L25.5264 26.375C25.5535 26.3216 25.5665 26.2621 25.5641 26.2022C25.5617 26.1423 25.5439 26.0841 25.5126 26.033C25.4812 25.982 25.4372 25.9398 25.3849 25.9106C25.3326 25.8814 25.2736 25.8662 25.2137 25.8663H17.67C17.6011 25.8662 17.5338 25.8459 17.4764 25.8077C17.4191 25.7695 17.3742 25.7153 17.3476 25.6517C17.3209 25.5882 17.3136 25.5182 17.3265 25.4505C17.3395 25.3828 17.3721 25.3205 17.4204 25.2713L26.7654 15.8038C27.036 15.5296 27.4864 15.8306 27.3359 16.1865L24.656 22.504C24.6333 22.5575 24.6244 22.6159 24.6299 22.6738C24.6354 22.7317 24.6553 22.7873 24.6877 22.8356C24.7202 22.8839 24.7641 22.9233 24.8156 22.9504C24.8671 22.9774 24.9245 22.9912 24.9827 22.9905L32.3222 22.8995C32.3915 22.8984 32.4595 22.9178 32.5177 22.9554C32.5759 22.993 32.6216 23.047 32.6491 23.1106C32.6766 23.1741 32.6846 23.2445 32.6721 23.3126C32.6596 23.3807 32.6271 23.4436 32.5789 23.4933L32.5777 23.4945Z" stroke="black"/>
</svg>
