<svg width="50" height="50" viewBox="0 0 50 50" fill="none" xmlns="http://www.w3.org/2000/svg">
<rect width="50" height="50" fill="#FAFAFA"/>
<path d="M25.1041 33.9214C25.0388 33.9452 24.9673 33.9452 24.9021 33.9214C24.0349 33.6174 17.8516 31.2038 17.8516 24.3312V18.1201C17.8514 18.0402 17.8779 17.9626 17.927 17.8996C17.9761 17.8365 18.0449 17.7918 18.1224 17.7724L24.9164 16.0712C24.9733 16.057 25.0328 16.057 25.0898 16.0712L31.8837 17.7724C31.9612 17.7918 32.03 17.8365 32.0791 17.8996C32.1282 17.9626 32.1548 18.0402 32.1546 18.1201V24.3312C32.1546 31.2726 25.9721 33.6255 25.1041 33.9223V33.9214Z" stroke="black" stroke-width="1.3" stroke-miterlimit="10" stroke-linejoin="round"/>
</svg>
