<svg width="50" height="50" viewBox="0 0 50 50" fill="none" xmlns="http://www.w3.org/2000/svg">
<rect width="50" height="50" fill="#FAFAFA"/>
<path d="M19.1837 26.1529L16.1174 25.158C16.1174 25.158 16 25.1055 16 25.0087C16.0034 24.9743 16.0159 24.9414 16.0363 24.9134C16.0567 24.8855 16.0842 24.8635 16.116 24.8498L19.1989 23.848C20.2702 23.4757 21.2412 22.8612 22.0365 22.0523C22.8319 21.2435 23.43 20.2621 23.7845 19.1843L24.7804 16.118C24.7804 16.118 24.8398 16.002 24.9378 16.002C25.0359 16.002 25.0939 16.118 25.0939 16.118L26.0925 19.1898C26.4536 20.2762 27.0634 21.2633 27.8732 22.0722C28.683 22.8812 29.6705 23.4897 30.7569 23.8494L33.8923 24.865C33.9224 24.8781 33.9484 24.8992 33.9674 24.926C33.9864 24.9528 33.9977 24.9843 34 25.017C33.995 25.0504 33.982 25.0821 33.962 25.1093C33.9421 25.1365 33.9157 25.1585 33.8854 25.1732L30.8122 26.1709C29.7262 26.5313 28.7393 27.1406 27.9303 27.95C27.1212 28.7594 26.5123 29.7467 26.1519 30.8332L25.1644 33.8732C25.1586 33.9105 25.1391 33.9444 25.1098 33.9681C25.0804 33.9919 25.0432 34.0039 25.0055 34.0017C24.8619 34.0017 24.8425 33.8981 24.8425 33.8981L23.8439 30.8304C23.4853 29.7408 22.8769 28.7503 22.0672 27.9381C21.2575 27.1259 20.2691 26.5145 19.1809 26.1529" stroke="black"/>
<path d="M30.7075 17.913L30.0261 17.6919C30.0261 17.6919 30 17.6802 30 17.6587C30.0007 17.6511 30.0035 17.6438 30.0081 17.6376C30.0126 17.6313 30.0187 17.6265 30.0258 17.6234L30.7109 17.4008C30.9489 17.3181 31.1647 17.1815 31.3415 17.0018C31.5182 16.822 31.6511 16.6039 31.7299 16.3644L31.9512 15.683C31.9512 15.683 31.9644 15.6572 31.9862 15.6572C32.008 15.6572 32.0209 15.683 32.0209 15.683L32.2428 16.3656C32.323 16.6071 32.4585 16.8264 32.6385 17.0062C32.8184 17.1859 33.0379 17.3212 33.2793 17.4011L33.9761 17.6268C33.9828 17.6297 33.9885 17.6344 33.9927 17.6403C33.997 17.6463 33.9995 17.6533 34 17.6606C33.9989 17.668 33.996 17.675 33.9916 17.6811C33.9871 17.6871 33.9813 17.692 33.9745 17.6953L33.2916 17.917C33.0503 17.9971 32.831 18.1325 32.6512 18.3123C32.4714 18.4922 32.3361 18.7116 32.256 18.9531L32.0365 19.6286C32.0352 19.6369 32.0309 19.6444 32.0244 19.6497C32.0179 19.655 32.0096 19.6577 32.0012 19.6572C31.9693 19.6572 31.965 19.6341 31.965 19.6341L31.7431 18.9524C31.6634 18.7103 31.5282 18.4902 31.3483 18.3097C31.1683 18.1292 30.9487 17.9934 30.7069 17.913" stroke="black"/>
</svg>
