<svg preserveAspectRatio="xMidYMid meet" width="26" height="26" overflow="visible" style="display: block;" viewBox="0 0 26 26" fill="none" xmlns="http://www.w3.org/2000/svg">
<g id="ant-design:fire-outlined">
<path id="Vector" d="M17.7198 20.0104C16.4588 21.2596 14.7846 21.9453 13 21.9453C11.2154 21.9453 9.54111 21.2596 8.28015 20.0104C7.02388 18.7635 6.33118 17.1104 6.33118 15.3516C6.33118 14.3302 6.5613 13.351 7.01449 12.4399C7.45595 11.5499 8.11343 10.7539 8.91181 10.141C9.42098 9.7517 9.8828 9.30407 10.2878 8.80729C10.8749 8.0911 11.3351 7.29272 11.6545 6.43564C11.7855 6.0821 11.8806 5.7163 11.9386 5.34375C12.5045 5.86504 12.9788 6.49435 13.3757 7.23167C14.1599 8.70162 14.5216 10.0095 14.4511 11.1226C14.4343 11.3847 14.4771 11.6473 14.5763 11.8905C14.6756 12.1337 14.8287 12.3512 15.0241 12.5268C15.1934 12.6797 15.3915 12.7975 15.6067 12.8733C15.822 12.9491 16.0502 12.9814 16.278 12.9682C16.7406 12.9447 17.1656 12.7405 17.4756 12.3953C17.7879 12.0454 18.0579 11.6885 18.2833 11.3245C18.6121 11.7448 18.8868 12.2027 19.1052 12.6958C19.4785 13.5365 19.6687 14.4311 19.6687 15.3516C19.6687 17.1104 18.976 18.7658 17.7198 20.0104Z" stroke="var(--stroke-0, white)" stroke-width="1.3"/>
</g>
</svg>
