<svg width="26" height="26" viewBox="0 0 26 26" fill="none" xmlns="http://www.w3.org/2000/svg">
<path d="M7.97687 9.71056L12.9999 4.6875L18.023 9.71056C19.0164 10.704 19.6929 11.9697 19.9669 13.3476C20.241 14.7256 20.1003 16.1538 19.5626 17.4518C19.025 18.7497 18.1145 19.8591 16.9463 20.6396C15.7782 21.4201 14.4048 21.8367 12.9999 21.8367C11.595 21.8367 10.2217 21.4201 9.05352 20.6396C7.88537 19.8591 6.97491 18.7497 6.43725 17.4518C5.89959 16.1538 5.75889 14.7256 6.03294 13.3476C6.30699 11.9697 6.98348 10.704 7.97687 9.71056Z" stroke="white" stroke-width="1.3"/>
<path d="M12.9998 18.9203C11.8897 18.9203 10.825 18.4792 10.04 17.6942C9.25498 16.9092 8.81396 15.8445 8.81396 14.7344" stroke="white" stroke-width="1.3"/>
</svg>
