<svg preserveAspectRatio="xMidYMid meet" width="26" height="26" overflow="visible" style="display: block;" viewBox="0 0 15.5069 18.7185" fill="none" xmlns="http://www.w3.org/2000/svg">
<g id="Group">
<path id="Vector" d="M2.73039 5.9423L7.75345 0.919239L12.7765 5.9423C13.7699 6.93575 14.4464 8.20147 14.7204 9.57939C14.9945 10.9573 14.8538 12.3855 14.3161 13.6835C13.7785 14.9815 12.868 16.0908 11.6999 16.8714C10.5317 17.6519 9.15836 18.0685 7.75345 18.0685C6.34854 18.0685 4.97518 17.6519 3.80704 16.8714C2.63889 16.0908 1.72842 14.9815 1.19077 13.6835C0.653109 12.3855 0.51241 10.9573 0.78646 9.57939C1.06051 8.20147 1.737 6.93575 2.73039 5.9423Z" stroke="var(--stroke-0, white)" stroke-width="1.3"/>
<path id="Vector_2" d="M7.75346 15.152C6.64329 15.152 5.57859 14.711 4.79359 13.926C4.00858 13.141 3.56757 12.0763 3.56757 10.9661" stroke="var(--stroke-0, white)" stroke-width="1.3"/>
</g>
</svg>
