<svg preserveAspectRatio="xMidYMid meet" width="26" height="26" overflow="visible" style="display: block;" viewBox="0 0 26 26" fill="none" xmlns="http://www.w3.org/2000/svg">
<g id="bitcoin-icons:lightning-outline">
<path id="Vector" d="M20.0373 11.6015L10.6817 21.2215C10.4217 21.488 9.9905 21.1792 10.1595 20.8477L13.4897 14.2762C13.5149 14.2266 13.527 14.1714 13.5247 14.1158C13.5225 14.0602 13.506 14.0061 13.4769 13.9587C13.4477 13.9113 13.4069 13.8722 13.3583 13.8451C13.3097 13.818 13.255 13.8038 13.1993 13.8039H6.1945C6.13052 13.8039 6.06798 13.7849 6.01471 13.7495C5.96145 13.714 5.91983 13.6637 5.89507 13.6047C5.87032 13.5457 5.86353 13.4807 5.87555 13.4178C5.88757 13.355 5.91788 13.2971 5.96266 13.2514L14.6402 4.46016C14.8915 4.20558 15.3097 4.48508 15.1699 4.81549L12.6815 10.6817C12.6604 10.7315 12.6521 10.7857 12.6572 10.8394C12.6624 10.8932 12.6808 10.9448 12.7109 10.9897C12.741 11.0345 12.7819 11.0712 12.8297 11.0963C12.8775 11.1214 12.9308 11.1342 12.9848 11.1335L19.8001 11.049C19.8644 11.048 19.9276 11.066 19.9816 11.1009C20.0356 11.1358 20.0781 11.186 20.1036 11.245C20.1291 11.3041 20.1366 11.3693 20.125 11.4326C20.1134 11.4959 20.0832 11.5543 20.0384 11.6004L20.0373 11.6015Z" stroke="var(--stroke-0, white)" stroke-width="1.08333"/>
</g>
</svg>
