<svg width="32" height="32" viewBox="0 0 32 32" fill="none" xmlns="http://www.w3.org/2000/svg">
<path d="M14.9983 17.7126C14.9049 17.7127 14.8124 17.6942 14.7262 17.6584C14.6399 17.6226 14.5616 17.5701 14.4957 17.504C13.8708 16.8778 13.5198 16.0295 13.5198 15.1451C13.5198 14.2606 13.8708 13.4123 14.4957 12.7862L17.1187 10.1608C17.4266 9.84218 17.7949 9.58808 18.2021 9.41329C18.6093 9.2385 19.0472 9.14651 19.4904 9.1427C19.9335 9.13889 20.373 9.22333 20.7831 9.39109C21.1933 9.55885 21.5659 9.80657 21.8793 10.1198C22.1926 10.433 22.4404 10.8055 22.6083 11.2155C22.7761 11.6255 22.8606 12.0648 22.8567 12.5078C22.8529 12.9507 22.7609 13.3885 22.586 13.7956C22.4112 14.2026 22.157 14.5708 21.8383 14.8786L20.638 16.0784C20.5045 16.2118 20.3235 16.2868 20.1348 16.2868C19.9461 16.2868 19.7651 16.2118 19.6316 16.0784C19.4982 15.945 19.4232 15.7641 19.4232 15.5755C19.4232 15.3868 19.4982 15.2059 19.6316 15.0725L20.832 13.8726C21.1836 13.5121 21.379 13.0276 21.3758 12.5241C21.3726 12.0206 21.171 11.5387 20.8149 11.1826C20.4587 10.8266 19.9766 10.6252 19.4729 10.622C18.9692 10.6188 18.4845 10.8141 18.1239 11.1656L15.4975 13.791C15.1389 14.1503 14.9376 14.637 14.9376 15.1445C14.9376 15.652 15.1389 16.1387 15.4975 16.498C15.597 16.5972 15.6649 16.7236 15.6926 16.8613C15.7203 16.999 15.7066 17.1419 15.6532 17.2718C15.5998 17.4017 15.5091 17.5129 15.3925 17.5914C15.276 17.6698 15.1388 17.712 14.9983 17.7126ZM12.4751 22.8569C11.8154 22.8558 11.1709 22.6594 10.6228 22.2924C10.0747 21.9255 9.64775 21.4044 9.39574 20.795C9.14374 20.1856 9.07802 19.5152 9.2069 18.8685C9.33577 18.2218 9.65346 17.6278 10.1198 17.1615L11.3156 15.9616C11.4491 15.8282 11.6301 15.7533 11.8188 15.7533C12.0075 15.7533 12.1885 15.8282 12.3219 15.9616C12.4554 16.095 12.5304 16.2759 12.5304 16.4646C12.5304 16.6532 12.4554 16.8342 12.3219 16.9675L11.1205 18.1663C10.7609 18.5253 10.5587 19.0123 10.5584 19.5203C10.5581 20.0283 10.7597 20.5156 11.1188 20.875C11.4779 21.2345 11.9651 21.4366 12.4733 21.4369C12.9815 21.4372 13.469 21.2357 13.8286 20.8767L16.455 18.2513C16.8135 17.892 17.0149 17.4053 17.0149 16.8978C17.0149 16.3903 16.8135 15.9036 16.455 15.5443C16.3215 15.4109 16.2466 15.23 16.2466 15.0413C16.2466 14.8527 16.3215 14.6717 16.455 14.5383C16.5884 14.4049 16.7694 14.33 16.9582 14.33C17.1469 14.33 17.3279 14.4049 17.4613 14.5383C18.0862 15.1645 18.4372 16.0128 18.4372 16.8972C18.4372 17.7817 18.0862 18.63 17.4613 19.2561L14.8349 21.8793C14.5257 22.1901 14.158 22.4365 13.7529 22.6043C13.3479 22.7721 12.9136 22.8579 12.4751 22.8569Z" fill="black"/>
</svg>
