<svg width="32" height="32" viewBox="0 0 32 32" fill="none" xmlns="http://www.w3.org/2000/svg">
<path d="M11.5371 10.3504C11.5369 10.7786 11.3666 11.1891 11.0637 11.4916C10.7609 11.7942 10.3502 11.9641 9.92205 11.9639C9.49392 11.9637 9.08341 11.7934 8.78083 11.4905C8.47825 11.1876 8.30838 10.7769 8.30859 10.3488C8.30881 9.92068 8.47909 9.51017 8.78197 9.20759C9.08486 8.90501 9.49554 8.73514 9.92366 8.73535C10.3518 8.73557 10.7623 8.90584 11.0649 9.20873C11.3675 9.51161 11.5373 9.92229 11.5371 10.3504ZM11.5855 13.1592H8.35702V23.2645H11.5855V13.1592ZM16.6866 13.1592H13.4742V23.2645H16.6543V17.9617C16.6543 15.0076 20.5044 14.7331 20.5044 17.9617V23.2645H23.6925V16.864C23.6925 11.884 17.9942 12.0696 16.6543 14.5152L16.6866 13.1592Z" fill="black"/>
</svg>
